<?xml version="1.0" standalone="no"?><svg xmlns="http://www.w3.org/2000/svg" viewBox="0 0 1440 320"><path fill="#32a852" fill-opacity="1" d="M0,128L26.7,138.7C53.3,149,107,171,160,192C213.3,213,267,235,320,218.7C373.3,203,427,149,480,160C533.3,171,587,245,640,234.7C693.3,224,747,128,800,106.7C853.3,85,907,139,960,160C1013.3,181,1067,171,1120,181.3C1173.3,192,1227,224,1280,202.7C1333.3,181,1387,107,1413,69.3L1440,32L1440,320L1413.3,320C1386.7,320,1333,320,1280,320C1226.7,320,1173,320,1120,320C1066.7,320,1013,320,960,320C906.7,320,853,320,800,320C746.7,320,693,320,640,320C586.7,320,533,320,480,320C426.7,320,373,320,320,320C266.7,320,213,320,160,320C106.7,320,53,320,27,320L0,320Z"></path></svg>